<?xml version="1.0" encoding="UTF-8" standalone="no"?>
<!-- Created with Inkscape (http://www.inkscape.org/) -->

<svg
   xmlns:dc="http://purl.org/dc/elements/1.1/"
   xmlns:cc="http://creativecommons.org/ns#"
   xmlns:rdf="http://www.w3.org/1999/02/22-rdf-syntax-ns#"
   xmlns:svg="http://www.w3.org/2000/svg"
   xmlns="http://www.w3.org/2000/svg"
   xmlns:xlink="http://www.w3.org/1999/xlink"
   xmlns:sodipodi="http://sodipodi.sourceforge.net/DTD/sodipodi-0.dtd"
   xmlns:inkscape="http://www.inkscape.org/namespaces/inkscape"
   width="744.09448819"
   height="1052.3622047"
   id="svg2"
   version="1.1"
   inkscape:version="0.48.4 r9939"
   sodipodi:docname="New document 1">
  <defs
     id="defs4">
    <linearGradient
       inkscape:collect="always"
       id="linearGradient3821">
      <stop
         style="stop-color:#00aad4;stop-opacity:1;"
         offset="0"
         id="stop3823" />
      <stop
         style="stop-color:#00aad4;stop-opacity:0;"
         offset="1"
         id="stop3825" />
    </linearGradient>
    <radialGradient
       inkscape:collect="always"
       xlink:href="#linearGradient3821"
       id="radialGradient3827"
       cx="142.75093"
       cy="306.78033"
       fx="142.75093"
       fy="306.78033"
       r="106.30138"
       gradientTransform="matrix(1.0966925,0.7705624,-0.37591319,0.53500481,101.51983,34.910244)"
       gradientUnits="userSpaceOnUse" />
  </defs>
  <sodipodi:namedview
     id="base"
     pagecolor="#ffffff"
     bordercolor="#666666"
     borderopacity="1.0"
     inkscape:pageopacity="0.0"
     inkscape:pageshadow="2"
     inkscape:zoom="1.4710937"
     inkscape:cx="66.642622"
     inkscape:cy="694.47446"
     inkscape:document-units="px"
     inkscape:current-layer="g3801"
     showgrid="false"
     inkscape:window-width="1366"
     inkscape:window-height="705"
     inkscape:window-x="-8"
     inkscape:window-y="-8"
     inkscape:window-maximized="1" />
  <metadata
     id="metadata7">
    <rdf:RDF>
      <cc:Work
         rdf:about="">
        <dc:format>image/svg+xml</dc:format>
        <dc:type
           rdf:resource="http://purl.org/dc/dcmitype/StillImage" />
        <dc:title></dc:title>
      </cc:Work>
    </rdf:RDF>
  </metadata>
  <g
     inkscape:label="Layer 1"
     inkscape:groupmode="layer"
     id="layer1">
    <g
       id="g3801"
       transform="matrix(0.9588613,-0.03888573,0.01958193,0.99920587,-4.6014045,6.0056878)">
      <text
         sodipodi:linespacing="125%"
         id="text2985"
         y="316.85501"
         x="62.538502"
         style="font-size:56px;font-style:normal;font-variant:normal;font-weight:normal;font-stretch:normal;line-height:125%;letter-spacing:0px;word-spacing:0px;fill:#00aad4;fill-opacity:1;stroke:none;font-family:Pristina;-inkscape-font-specification:Pristina"
         xml:space="preserve"><tspan
           style="font-size:72px;letter-spacing:6.54000139px;fill:#00aad4"
           y="316.85501"
           x="62.538502"
           id="tspan2987"
           sodipodi:role="line">Blink</tspan></text>
      <text
         transform="scale(0.93996296,1.0638717)"
         sodipodi:linespacing="125%"
         id="text2989"
         y="345.86606"
         x="62.773174"
         style="font-size:67.61452484px;font-style:normal;font-variant:normal;font-weight:normal;font-stretch:normal;line-height:125%;letter-spacing:0px;word-spacing:0px;fill:#ff6600;fill-opacity:1;stroke:none;font-family:Montserrat;-inkscape-font-specification:Montserrat"
         xml:space="preserve"><tspan
           style="font-style:normal;font-variant:normal;font-weight:normal;font-stretch:normal;fill:#ff6600;font-family:CreativeBlock BB;-inkscape-font-specification:CreativeBlock BB"
           y="345.86606"
           x="62.773174"
           id="tspan2991"
           sodipodi:role="line">BLING</tspan></text>
      <path
         transform="matrix(2.4010015,0,0,1.5137006,84.570983,-52.914329)"
         d="m 70.177438,203.02293 c 5.506108,6.18587 1.3792,77.16868 -4.806674,82.67479 -6.185873,5.5061 -77.168682,1.3792 -82.674789,-4.80668 -5.506108,-6.18587 -1.3792,-77.16868 4.806674,-82.67479 6.1858734,-5.5061 77.168682,-1.3792 82.674789,4.80668 z"
         inkscape:randomized="0"
         inkscape:rounded="0.1"
         inkscape:flatsided="true"
         sodipodi:arg2="0.05807416"
         sodipodi:arg1="-0.727324"
         sodipodi:r2="41.4072"
         sodipodi:r1="58.558624"
         sodipodi:cy="241.95699"
         sodipodi:cx="26.436707"
         sodipodi:sides="4"
         id="path3009"
         style="fill:none;stroke:#000000;stroke-width:0.53568053;stroke-linejoin:miter;stroke-miterlimit:4;stroke-opacity:1;stroke-dasharray:none"
         sodipodi:type="star" />
      <path
         transform="matrix(2.2174724,0,0,1.3674085,89.42289,-16.714134)"
         d="m 70.177438,203.02293 c 5.506108,6.18587 1.3792,77.16868 -4.806674,82.67479 -6.185873,5.5061 -77.168682,1.3792 -82.674789,-4.80668 -5.506108,-6.18587 -1.3792,-77.16868 4.806674,-82.67479 6.1858734,-5.5061 77.168682,-1.3792 82.674789,4.80668 z"
         inkscape:randomized="0"
         inkscape:rounded="0.1"
         inkscape:flatsided="true"
         sodipodi:arg2="0.05807416"
         sodipodi:arg1="-0.727324"
         sodipodi:r2="41.4072"
         sodipodi:r1="58.558624"
         sodipodi:cy="241.95699"
         sodipodi:cx="26.436707"
         sodipodi:sides="4"
         id="path3009-1"
         style="fill:none;stroke:#000000;stroke-width:0.58646733;stroke-linejoin:miter;stroke-miterlimit:4;stroke-opacity:1;stroke-dasharray:none"
         sodipodi:type="star" />
    </g>
    <path
       style="fill:url(#radialGradient3827);fill-opacity:1;fill-rule:nonzero;stroke:#000000;stroke-width:1;stroke-linejoin:miter;stroke-miterlimit:4;stroke-opacity:1;stroke-dasharray:none"
       d="m 145.31807,244.30727 c -27.7789,0.34167 -55.691495,0.38635 -83.251961,4.24067 -4.271733,0.82625 -9.609996,1.23857 -11.872837,5.52035 -4.706435,8.41727 -6.248689,18.13546 -8.024131,27.50429 -3.529241,21.98372 -5.17866,44.29008 -4.207678,66.55742 0.394454,8.2366 0.730845,16.77038 3.755264,24.50728 1.00934,2.8974 3.813374,4.5024 6.71478,4.95105 13.853179,2.8244 28.121102,3.25587 42.228816,4.02453 24.570417,0.97682 49.171657,0.70048 73.754697,0.50225 20.65437,-0.58365 41.3874,-1.11874 61.83773,-4.21251 4.07455,-0.74319 9.0882,-1.60099 10.95061,-5.85236 4.69609,-9.42962 6.35634,-20.00144 8.15295,-30.29502 3.48009,-23.25886 4.8894,-46.9309 3.25438,-70.40599 -0.78222,-6.57394 -1.01298,-13.64812 -4.51407,-19.43707 -2.30763,-2.97975 -6.56992,-2.92117 -9.94768,-3.74089 -20.43079,-2.9227 -41.12973,-3.24511 -61.7357,-3.72979 -9.03099,-0.15052 -18.06318,-0.16241 -27.09517,-0.13421 z m 5.85237,6.89326 c 24.12574,0.13038 48.33939,0.34955 72.33138,2.93149 4.07661,0.74228 8.58502,0.73083 12.16145,2.96336 3.68339,3.50313 4.11402,9.09892 4.93416,13.87601 2.31908,19.7954 1.00145,39.8771 -1.16536,59.62612 -1.64792,12.18778 -3.43991,24.65063 -8.46344,35.919 -1.26316,3.11495 -4.08343,5.23325 -7.39246,5.67181 -13.58778,2.74948 -27.49409,3.13698 -41.30523,3.9232 -35.08686,1.4517 -70.2693,1.50263 -105.32249,-0.76866 -7.998056,-0.74082 -16.244865,-0.96579 -23.94052,-3.35635 -4.35081,-1.55059 -4.9764,-6.69547 -5.991668,-10.54911 -1.933585,-10.55995 -1.544911,-21.39007 -1.634938,-32.09553 0.305885,-18.22341 2.108226,-36.46542 6.159751,-54.2565 1.570942,-5.68298 2.819383,-11.9355 6.70318,-16.53487 3.379726,-2.92097 8.245002,-2.83448 12.434412,-3.72142 22.982063,-2.88587 46.221713,-3.23205 69.371113,-3.58734 3.70678,-0.0339 7.41373,-0.0447 11.12066,-0.0412 z"
       id="path3811"
       inkscape:connector-curvature="0" />
  </g>
</svg>
